<?xml version="1.0" encoding="UTF-8"?>
<!DOCTYPE svg PUBLIC "-//W3C//DTD SVG 1.1//EN" "http://www.w3.org/Graphics/SVG/1.1/DTD/svg11.dtd">
<!-- Creator: CorelDRAW -->
<svg xmlns="http://www.w3.org/2000/svg" xml:space="preserve" width="5in" height="5in" version="1.1" style="shape-rendering:geometricPrecision; text-rendering:geometricPrecision; image-rendering:optimizeQuality; fill-rule:evenodd; clip-rule:evenodd"
viewBox="0 0 5000 5000"
 xmlns:xlink="http://www.w3.org/1999/xlink"
 xmlns:xodm="http://www.corel.com/coreldraw/odm/2003">
 <defs>
  <style type="text/css">
   <![CDATA[
    .fil0 {fill:#FF6600;fill-rule:nonzero}
   ]]>
  </style>
 </defs>
 <g id="Layer_x0020_1">
  <metadata id="CorelCorpID_0Corel-Layer"/>
  <g id="_105553470115680">
   <path class="fil0" d="M2417.02 961.53c-873.34,362.82 -990.04,726.82 -839.07,1090.21 91.83,221.04 275.87,453.95 459.48,686.31 188.32,238.33 376.23,476.12 482.43,719.45 212.08,485.94 114.06,954.76 -857.86,1378.94l-104.44 -239.97c781.59,-341.11 874.19,-686.59 722.33,-1034.53 -92.95,-212.98 -270.28,-437.38 -447.99,-662.29 -194.78,-246.5 -390.02,-493.58 -495.85,-748.32 -208.45,-501.76 -84.07,-989.09 981.37,-1431.72l99.6 241.91z"/>
   <path class="fil0" d="M2788.39 770.02c-873.34,362.82 -990.03,726.81 -839.06,1090.2 91.83,221.04 275.88,453.96 459.48,686.31 188.32,238.33 376.24,476.13 482.43,719.46 212.08,485.93 114.06,954.76 -857.87,1378.94l-104.44 -239.97c781.59,-341.11 874.19,-686.59 722.34,-1034.53 -92.95,-212.98 -270.28,-437.39 -448,-662.3 -194.78,-246.49 -390.02,-493.58 -495.85,-748.32 -208.45,-501.76 -84.07,-989.08 981.37,-1431.71l99.59 241.91z"/>
   <path class="fil0" d="M3157.22 589.26c-873.35,362.83 -990.04,726.81 -839.07,1090.21 91.83,221.04 275.88,453.96 459.48,686.31 188.32,238.33 376.23,476.13 482.43,719.46 212.08,485.93 114.06,954.76 -857.87,1378.94l-104.44 -239.97c781.59,-341.11 874.19,-686.59 722.34,-1034.53 -92.95,-212.98 -270.28,-437.39 -447.99,-662.3 -194.78,-246.49 -390.02,-493.58 -495.85,-748.32 -208.45,-501.76 -84.07,-989.08 981.37,-1431.71l99.6 241.91z"/>
   <path class="fil0" d="M3552.67 405.46c-873.34,362.83 -990.03,726.82 -839.06,1090.21 91.83,221.04 275.87,453.95 459.48,686.31 188.32,238.33 376.23,476.13 482.43,719.45 212.08,485.94 114.05,954.76 -857.86,1378.94l-104.44 -239.97c781.59,-341.11 874.19,-686.59 722.34,-1034.53 -92.95,-212.98 -270.28,-437.39 -448,-662.29 -194.78,-246.5 -390.02,-493.58 -495.85,-748.32 -208.45,-501.76 -84.07,-989.08 981.37,-1431.71l99.59 241.91z"/>
  </g>
 </g>
</svg>
